<?xml version="1.0" standalone="no"?><!DOCTYPE svg PUBLIC "-//W3C//DTD SVG 1.1//EN" "http://www.w3.org/Graphics/SVG/1.1/DTD/svg11.dtd"><svg t="1640160711859" class="icon" viewBox="0 0 1024 1024" version="1.1" xmlns="http://www.w3.org/2000/svg" p-id="5649" xmlns:xlink="http://www.w3.org/1999/xlink" width="200" height="200"><defs><style type="text/css"></style></defs><path d="M850.688 341.333H896a85.333 85.333 0 0 1 85.333 85.334v170.666A85.333 85.333 0 0 1 896 682.667h-45.312A341.376 341.376 0 0 1 512 981.333V896a256 256 0 0 0 256-256V384a256 256 0 1 0-512 0v298.667H128a85.333 85.333 0 0 1-85.333-85.334V426.667A85.333 85.333 0 0 1 128 341.333h45.312a341.376 341.376 0 0 1 677.376 0zM128 426.667v170.666h42.667V426.667H128z m725.333 0v170.666H896V426.667h-42.667z m-522.24 246.826l45.227-72.362A254.805 254.805 0 0 0 512 640a254.805 254.805 0 0 0 135.68-38.87l45.227 72.363A339.755 339.755 0 0 1 512 725.333a339.755 339.755 0 0 1-180.907-51.84z" fill="#CDCDCD" p-id="5650"></path></svg>